<svg id="visual" viewBox="0 0 900 100" width="900" height="100" xmlns="http://www.w3.org/2000/svg" xmlns:xlink="http://www.w3.org/1999/xlink" version="1.1"><rect x="0" y="0" width="900" height="100" fill="#0b0c10"></rect><path d="M0 55L21.5 57.8C43 60.7 86 66.3 128.8 67.7C171.7 69 214.3 66 257.2 62.7C300 59.3 343 55.7 385.8 53.8C428.7 52 471.3 52 514.2 53.3C557 54.7 600 57.3 642.8 60.5C685.7 63.7 728.3 67.3 771.2 70.5C814 73.7 857 76.3 878.5 77.7L900 79L900 0L878.5 0C857 0 814 0 771.2 0C728.3 0 685.7 0 642.8 0C600 0 557 0 514.2 0C471.3 0 428.7 0 385.8 0C343 0 300 0 257.2 0C214.3 0 171.7 0 128.8 0C86 0 43 0 21.5 0L0 0Z" fill="#0b0c10"></path><path d="M0 50L21.5 51.7C43 53.3 86 56.7 128.8 58.3C171.7 60 214.3 60 257.2 56.7C300 53.3 343 46.7 385.8 44C428.7 41.3 471.3 42.7 514.2 42.7C557 42.7 600 41.3 642.8 43.7C685.7 46 728.3 52 771.2 52.8C814 53.7 857 49.3 878.5 47.2L900 45L900 0L878.5 0C857 0 814 0 771.2 0C728.3 0 685.7 0 642.8 0C600 0 557 0 514.2 0C471.3 0 428.7 0 385.8 0C343 0 300 0 257.2 0C214.3 0 171.7 0 128.8 0C86 0 43 0 21.5 0L0 0Z" fill="#121419"></path><path d="M0 45L21.5 42.7C43 40.3 86 35.7 128.8 35.7C171.7 35.7 214.3 40.3 257.2 41.7C300 43 343 41 385.8 40.8C428.7 40.7 471.3 42.3 514.2 41.2C557 40 600 36 642.8 33.8C685.7 31.7 728.3 31.3 771.2 31.5C814 31.7 857 32.3 878.5 32.7L900 33L900 0L878.5 0C857 0 814 0 771.2 0C728.3 0 685.7 0 642.8 0C600 0 557 0 514.2 0C471.3 0 428.7 0 385.8 0C343 0 300 0 257.2 0C214.3 0 171.7 0 128.8 0C86 0 43 0 21.5 0L0 0Z" fill="#171b21"></path><path d="M0 22L21.5 24C43 26 86 30 128.8 30.7C171.7 31.3 214.3 28.7 257.2 29C300 29.3 343 32.7 385.8 34.7C428.7 36.7 471.3 37.3 514.2 36.8C557 36.3 600 34.7 642.8 33.8C685.7 33 728.3 33 771.2 31.3C814 29.7 857 26.3 878.5 24.7L900 23L900 0L878.5 0C857 0 814 0 771.2 0C728.3 0 685.7 0 642.8 0C600 0 557 0 514.2 0C471.3 0 428.7 0 385.8 0C343 0 300 0 257.2 0C214.3 0 171.7 0 128.8 0C86 0 43 0 21.5 0L0 0Z" fill="#1b212a"></path><path d="M0 13L21.5 12.7C43 12.3 86 11.7 128.8 12.7C171.7 13.7 214.3 16.3 257.2 17.2C300 18 343 17 385.8 15.7C428.7 14.3 471.3 12.7 514.2 12.8C557 13 600 15 642.8 15.2C685.7 15.3 728.3 13.7 771.2 14.3C814 15 857 18 878.5 19.5L900 21L900 0L878.5 0C857 0 814 0 771.2 0C728.3 0 685.7 0 642.8 0C600 0 557 0 514.2 0C471.3 0 428.7 0 385.8 0C343 0 300 0 257.2 0C214.3 0 171.7 0 128.8 0C86 0 43 0 21.5 0L0 0Z" fill="#1f2833"></path></svg>