<svg id="visual" viewBox="0 0 900 100" width="900" height="100" xmlns="http://www.w3.org/2000/svg" xmlns:xlink="http://www.w3.org/1999/xlink" version="1.1"><rect x="0" y="0" width="900" height="100" fill="#f5f5f5"></rect><path d="M0 74L21.5 71.7C43 69.3 86 64.7 128.8 65.2C171.7 65.7 214.3 71.3 257.2 70.3C300 69.3 343 61.7 385.8 58C428.7 54.3 471.3 54.7 514.2 57.7C557 60.7 600 66.3 642.8 69.7C685.7 73 728.3 74 771.2 70.8C814 67.7 857 60.3 878.5 56.7L900 53L900 0L878.5 0C857 0 814 0 771.2 0C728.3 0 685.7 0 642.8 0C600 0 557 0 514.2 0C471.3 0 428.7 0 385.8 0C343 0 300 0 257.2 0C214.3 0 171.7 0 128.8 0C86 0 43 0 21.5 0L0 0Z" fill="#f5f5f5"></path><path d="M0 64L21.5 62C43 60 86 56 128.8 52C171.7 48 214.3 44 257.2 45.5C300 47 343 54 385.8 56.7C428.7 59.3 471.3 57.7 514.2 55.7C557 53.7 600 51.3 642.8 51.5C685.7 51.7 728.3 54.3 771.2 56.5C814 58.7 857 60.3 878.5 61.2L900 62L900 0L878.5 0C857 0 814 0 771.2 0C728.3 0 685.7 0 642.8 0C600 0 557 0 514.2 0C471.3 0 428.7 0 385.8 0C343 0 300 0 257.2 0C214.3 0 171.7 0 128.8 0C86 0 43 0 21.5 0L0 0Z" fill="#babcc0"></path><path d="M0 39L21.5 38.2C43 37.3 86 35.7 128.8 36.7C171.7 37.7 214.3 41.3 257.2 43.3C300 45.3 343 45.7 385.8 44.5C428.7 43.3 471.3 40.7 514.2 41.3C557 42 600 46 642.8 45.5C685.7 45 728.3 40 771.2 38.7C814 37.3 857 39.7 878.5 40.8L900 42L900 0L878.5 0C857 0 814 0 771.2 0C728.3 0 685.7 0 642.8 0C600 0 557 0 514.2 0C471.3 0 428.7 0 385.8 0C343 0 300 0 257.2 0C214.3 0 171.7 0 128.8 0C86 0 43 0 21.5 0L0 0Z" fill="#82878e"></path><path d="M0 22L21.5 23.5C43 25 86 28 128.8 27.3C171.7 26.7 214.3 22.3 257.2 21C300 19.7 343 21.3 385.8 21.8C428.7 22.3 471.3 21.7 514.2 22.8C557 24 600 27 642.8 29.7C685.7 32.3 728.3 34.7 771.2 35.7C814 36.7 857 36.3 878.5 36.2L900 36L900 0L878.5 0C857 0 814 0 771.2 0C728.3 0 685.7 0 642.8 0C600 0 557 0 514.2 0C471.3 0 428.7 0 385.8 0C343 0 300 0 257.2 0C214.3 0 171.7 0 128.8 0C86 0 43 0 21.5 0L0 0Z" fill="#4e555f"></path><path d="M0 8L21.5 9.8C43 11.7 86 15.3 128.8 17.8C171.7 20.3 214.3 21.7 257.2 20C300 18.3 343 13.7 385.8 13.5C428.7 13.3 471.3 17.7 514.2 19.3C557 21 600 20 642.8 19.3C685.7 18.7 728.3 18.3 771.2 18.7C814 19 857 20 878.5 20.5L900 21L900 0L878.5 0C857 0 814 0 771.2 0C728.3 0 685.7 0 642.8 0C600 0 557 0 514.2 0C471.3 0 428.7 0 385.8 0C343 0 300 0 257.2 0C214.3 0 171.7 0 128.8 0C86 0 43 0 21.5 0L0 0Z" fill="#1f2833"></path></svg>