<svg id="visual" viewBox="0 0 900 100" width="900" height="100" xmlns="http://www.w3.org/2000/svg" xmlns:xlink="http://www.w3.org/1999/xlink" version="1.1"><rect x="0" y="0" width="900" height="100" fill="#f5f5f5"></rect><path d="M0 22L21.5 21.5C43 21 86 20 128.8 20.2C171.7 20.3 214.3 21.7 257.2 22.5C300 23.3 343 23.7 385.8 23.5C428.7 23.3 471.3 22.7 514.2 22.8C557 23 600 24 642.8 27.3C685.7 30.7 728.3 36.3 771.2 39.5C814 42.7 857 43.3 878.5 43.7L900 44L900 101L878.5 101C857 101 814 101 771.2 101C728.3 101 685.7 101 642.8 101C600 101 557 101 514.2 101C471.3 101 428.7 101 385.8 101C343 101 300 101 257.2 101C214.3 101 171.7 101 128.8 101C86 101 43 101 21.5 101L0 101Z" fill="#f5f5f5"></path><path d="M0 34L21.5 33.5C43 33 86 32 128.8 32.2C171.7 32.3 214.3 33.7 257.2 36.7C300 39.7 343 44.3 385.8 43.7C428.7 43 471.3 37 514.2 35.3C557 33.7 600 36.3 642.8 41C685.7 45.7 728.3 52.3 771.2 52.8C814 53.3 857 47.7 878.5 44.8L900 42L900 101L878.5 101C857 101 814 101 771.2 101C728.3 101 685.7 101 642.8 101C600 101 557 101 514.2 101C471.3 101 428.7 101 385.8 101C343 101 300 101 257.2 101C214.3 101 171.7 101 128.8 101C86 101 43 101 21.5 101L0 101Z" fill="#babcc0"></path><path d="M0 47L21.5 48.2C43 49.3 86 51.7 128.8 54.2C171.7 56.7 214.3 59.3 257.2 60.5C300 61.7 343 61.3 385.8 61.5C428.7 61.7 471.3 62.3 514.2 61C557 59.7 600 56.3 642.8 56.7C685.7 57 728.3 61 771.2 61.8C814 62.7 857 60.3 878.5 59.2L900 58L900 101L878.5 101C857 101 814 101 771.2 101C728.3 101 685.7 101 642.8 101C600 101 557 101 514.2 101C471.3 101 428.7 101 385.8 101C343 101 300 101 257.2 101C214.3 101 171.7 101 128.8 101C86 101 43 101 21.5 101L0 101Z" fill="#82878e"></path><path d="M0 68L21.5 70C43 72 86 76 128.8 76.2C171.7 76.3 214.3 72.7 257.2 70C300 67.3 343 65.7 385.8 66C428.7 66.3 471.3 68.7 514.2 70.2C557 71.7 600 72.3 642.8 71.7C685.7 71 728.3 69 771.2 68.7C814 68.3 857 69.7 878.5 70.3L900 71L900 101L878.5 101C857 101 814 101 771.2 101C728.3 101 685.7 101 642.8 101C600 101 557 101 514.2 101C471.3 101 428.7 101 385.8 101C343 101 300 101 257.2 101C214.3 101 171.7 101 128.8 101C86 101 43 101 21.5 101L0 101Z" fill="#4e555f"></path><path d="M0 81L21.5 80C43 79 86 77 128.8 76.8C171.7 76.7 214.3 78.3 257.2 80.7C300 83 343 86 385.8 86C428.7 86 471.3 83 514.2 81.3C557 79.7 600 79.3 642.8 79.2C685.7 79 728.3 79 771.2 79.3C814 79.7 857 80.3 878.5 80.7L900 81L900 101L878.5 101C857 101 814 101 771.2 101C728.3 101 685.7 101 642.8 101C600 101 557 101 514.2 101C471.3 101 428.7 101 385.8 101C343 101 300 101 257.2 101C214.3 101 171.7 101 128.8 101C86 101 43 101 21.5 101L0 101Z" fill="#1f2833"></path></svg>