<svg id="visual" viewBox="0 0 960 540" width="960" height="540" xmlns="http://www.w3.org/2000/svg" xmlns:xlink="http://www.w3.org/1999/xlink" version="1.1"><rect x="0" y="0" width="960" height="540" fill="#45a29e"></rect><g transform="translate(458.26089598410874 240.8665300992188)"><path d="M203.2 -336.9C267.5 -314.9 326.4 -268.7 370 -208.5C413.6 -148.3 441.8 -74.2 445.8 2.3C449.7 78.7 429.5 157.5 386.4 218.6C343.3 279.6 277.4 323 209.2 355.1C141 387.2 70.5 408.1 -3 413.3C-76.5 418.5 -153 408 -212.3 370.8C-271.6 333.5 -313.8 269.5 -348.2 203.3C-382.6 137 -409.3 68.5 -401.4 4.6C-393.4 -59.3 -350.9 -118.7 -312.5 -178C-274 -237.3 -239.8 -296.6 -188.4 -326C-137 -355.4 -68.5 -354.9 0.5 -355.8C69.5 -356.6 139 -358.9 203.2 -336.9" fill="#1f2833"></path></g></svg>