<svg id="visual" viewBox="0 0 960 540" width="960" height="540" xmlns="http://www.w3.org/2000/svg" xmlns:xlink="http://www.w3.org/1999/xlink" version="1.1"><rect x="0" y="0" width="960" height="540" fill="#45a29e"></rect><g transform="translate(504.309544451483 291.5004827537066)"><path d="M205.9 -358.3C269.1 -320.1 324.2 -269.6 354.5 -207.8C384.9 -146 390.4 -73 380.8 -5.6C371.1 61.8 346.2 123.7 312.5 179.7C278.9 235.7 236.4 285.8 182.9 314C129.3 342.1 64.7 348.3 -6.6 359.7C-77.8 371.1 -155.7 387.8 -206.8 358.2C-257.9 328.6 -282.2 252.8 -322 185.4C-361.9 118 -417.2 59 -430.5 -7.7C-443.7 -74.3 -415 -148.7 -369 -205.4C-323 -262.1 -259.7 -301.2 -195.4 -338.7C-131 -376.2 -65.5 -412.1 2.9 -417.2C71.3 -422.2 142.7 -396.4 205.9 -358.3" fill="#1f2833"></path></g></svg>