<svg id="visual" viewBox="0 0 960 540" width="960" height="540" xmlns="http://www.w3.org/2000/svg" xmlns:xlink="http://www.w3.org/1999/xlink" version="1.1"><rect x="0" y="0" width="960" height="540" fill="#45a29e"></rect><g transform="translate(504.69193553221515 276.7948946050687)"><path d="M193.8 -352.7C245.6 -305.8 278.3 -242.6 301.8 -181.2C325.4 -119.7 339.9 -59.8 352.6 7.3C365.3 74.5 376.2 149 356.5 217.2C336.8 285.4 286.5 347.3 222 380.5C157.5 413.8 78.8 418.4 8.5 403.6C-61.7 388.8 -123.3 354.6 -190.3 322.8C-257.3 291 -329.6 261.5 -371.2 208.1C-412.9 154.7 -423.9 77.3 -412.4 6.7C-400.9 -64 -366.7 -128 -326.4 -183.7C-286 -239.4 -239.5 -286.9 -184.1 -331.7C-128.7 -376.5 -64.3 -418.8 3.3 -424.5C71 -430.3 142 -399.6 193.8 -352.7" fill="#1f2833"></path></g></svg>