<svg id="visual" viewBox="0 0 900 100" width="900" height="100" xmlns="http://www.w3.org/2000/svg" xmlns:xlink="http://www.w3.org/1999/xlink" version="1.1"><rect x="0" y="0" width="900" height="100" fill="#f5f5f5"></rect><path d="M0 47L21.5 45.5C43 44 86 41 128.8 36.3C171.7 31.7 214.3 25.3 257.2 23.5C300 21.7 343 24.3 385.8 24.2C428.7 24 471.3 21 514.2 22.2C557 23.3 600 28.7 642.8 29.3C685.7 30 728.3 26 771.2 23.5C814 21 857 20 878.5 19.5L900 19L900 101L878.5 101C857 101 814 101 771.2 101C728.3 101 685.7 101 642.8 101C600 101 557 101 514.2 101C471.3 101 428.7 101 385.8 101C343 101 300 101 257.2 101C214.3 101 171.7 101 128.8 101C86 101 43 101 21.5 101L0 101Z" fill="#f5f5f5"></path><path d="M0 59L21.5 56C43 53 86 47 128.8 43.5C171.7 40 214.3 39 257.2 37.8C300 36.7 343 35.3 385.8 36.3C428.7 37.3 471.3 40.7 514.2 44.3C557 48 600 52 642.8 52C685.7 52 728.3 48 771.2 46.8C814 45.7 857 47.3 878.5 48.2L900 49L900 101L878.5 101C857 101 814 101 771.2 101C728.3 101 685.7 101 642.8 101C600 101 557 101 514.2 101C471.3 101 428.7 101 385.8 101C343 101 300 101 257.2 101C214.3 101 171.7 101 128.8 101C86 101 43 101 21.5 101L0 101Z" fill="#babcc0"></path><path d="M0 57L21.5 55.5C43 54 86 51 128.8 53.2C171.7 55.3 214.3 62.7 257.2 66.3C300 70 343 70 385.8 67.3C428.7 64.7 471.3 59.3 514.2 58.3C557 57.3 600 60.7 642.8 62.3C685.7 64 728.3 64 771.2 63.7C814 63.3 857 62.7 878.5 62.3L900 62L900 101L878.5 101C857 101 814 101 771.2 101C728.3 101 685.7 101 642.8 101C600 101 557 101 514.2 101C471.3 101 428.7 101 385.8 101C343 101 300 101 257.2 101C214.3 101 171.7 101 128.8 101C86 101 43 101 21.5 101L0 101Z" fill="#82878e"></path><path d="M0 64L21.5 65C43 66 86 68 128.8 69.7C171.7 71.3 214.3 72.7 257.2 71.7C300 70.7 343 67.3 385.8 65.3C428.7 63.3 471.3 62.7 514.2 62.3C557 62 600 62 642.8 63C685.7 64 728.3 66 771.2 65.8C814 65.7 857 63.3 878.5 62.2L900 61L900 101L878.5 101C857 101 814 101 771.2 101C728.3 101 685.7 101 642.8 101C600 101 557 101 514.2 101C471.3 101 428.7 101 385.8 101C343 101 300 101 257.2 101C214.3 101 171.7 101 128.8 101C86 101 43 101 21.5 101L0 101Z" fill="#4e555f"></path><path d="M0 87L21.5 85.2C43 83.3 86 79.7 128.8 78.2C171.7 76.7 214.3 77.3 257.2 78.2C300 79 343 80 385.8 80.5C428.7 81 471.3 81 514.2 82.5C557 84 600 87 642.8 86.3C685.7 85.7 728.3 81.3 771.2 79.2C814 77 857 77 878.5 77L900 77L900 101L878.5 101C857 101 814 101 771.2 101C728.3 101 685.7 101 642.8 101C600 101 557 101 514.2 101C471.3 101 428.7 101 385.8 101C343 101 300 101 257.2 101C214.3 101 171.7 101 128.8 101C86 101 43 101 21.5 101L0 101Z" fill="#1f2833"></path></svg>