<svg id="visual" viewBox="0 0 900 100" width="900" height="100" xmlns="http://www.w3.org/2000/svg" xmlns:xlink="http://www.w3.org/1999/xlink" version="1.1"><rect x="0" y="0" width="900" height="100" fill="#f5f5f5"></rect><path d="M0 35L21.5 34.7C43 34.3 86 33.7 128.8 33.7C171.7 33.7 214.3 34.3 257.2 35.3C300 36.3 343 37.7 385.8 38.7C428.7 39.7 471.3 40.3 514.2 38.8C557 37.3 600 33.7 642.8 32.2C685.7 30.7 728.3 31.3 771.2 30.2C814 29 857 26 878.5 24.5L900 23L900 101L878.5 101C857 101 814 101 771.2 101C728.3 101 685.7 101 642.8 101C600 101 557 101 514.2 101C471.3 101 428.7 101 385.8 101C343 101 300 101 257.2 101C214.3 101 171.7 101 128.8 101C86 101 43 101 21.5 101L0 101Z" fill="#f5f5f5"></path><path d="M0 45L21.5 42.5C43 40 86 35 128.8 34C171.7 33 214.3 36 257.2 37.2C300 38.3 343 37.7 385.8 40.5C428.7 43.3 471.3 49.7 514.2 51.3C557 53 600 50 642.8 46.2C685.7 42.3 728.3 37.7 771.2 38.2C814 38.7 857 44.3 878.5 47.2L900 50L900 101L878.5 101C857 101 814 101 771.2 101C728.3 101 685.7 101 642.8 101C600 101 557 101 514.2 101C471.3 101 428.7 101 385.8 101C343 101 300 101 257.2 101C214.3 101 171.7 101 128.8 101C86 101 43 101 21.5 101L0 101Z" fill="#babcc0"></path><path d="M0 70L21.5 66.2C43 62.3 86 54.7 128.8 54.3C171.7 54 214.3 61 257.2 61.7C300 62.3 343 56.7 385.8 53.3C428.7 50 471.3 49 514.2 49.8C557 50.7 600 53.3 642.8 53.3C685.7 53.3 728.3 50.7 771.2 50.3C814 50 857 52 878.5 53L900 54L900 101L878.5 101C857 101 814 101 771.2 101C728.3 101 685.7 101 642.8 101C600 101 557 101 514.2 101C471.3 101 428.7 101 385.8 101C343 101 300 101 257.2 101C214.3 101 171.7 101 128.8 101C86 101 43 101 21.5 101L0 101Z" fill="#82878e"></path><path d="M0 79L21.5 78.5C43 78 86 77 128.8 75.7C171.7 74.3 214.3 72.7 257.2 70.8C300 69 343 67 385.8 66.8C428.7 66.7 471.3 68.3 514.2 69.8C557 71.3 600 72.7 642.8 73.2C685.7 73.7 728.3 73.3 771.2 73.7C814 74 857 75 878.5 75.5L900 76L900 101L878.5 101C857 101 814 101 771.2 101C728.3 101 685.7 101 642.8 101C600 101 557 101 514.2 101C471.3 101 428.7 101 385.8 101C343 101 300 101 257.2 101C214.3 101 171.7 101 128.8 101C86 101 43 101 21.5 101L0 101Z" fill="#4e555f"></path><path d="M0 83L21.5 83.8C43 84.7 86 86.3 128.8 87.7C171.7 89 214.3 90 257.2 89.3C300 88.7 343 86.3 385.8 86.2C428.7 86 471.3 88 514.2 88.2C557 88.3 600 86.7 642.8 86.7C685.7 86.7 728.3 88.3 771.2 88.3C814 88.3 857 86.7 878.5 85.8L900 85L900 101L878.5 101C857 101 814 101 771.2 101C728.3 101 685.7 101 642.8 101C600 101 557 101 514.2 101C471.3 101 428.7 101 385.8 101C343 101 300 101 257.2 101C214.3 101 171.7 101 128.8 101C86 101 43 101 21.5 101L0 101Z" fill="#1f2833"></path></svg>